<?xml version="1.0" encoding="UTF-8"?>
<!DOCTYPE svg PUBLIC "-//W3C//DTD SVG 1.1//EN" "http://www.w3.org/Graphics/SVG/1.1/DTD/svg11.dtd">
<svg xmlns="http://www.w3.org/2000/svg" version="1.1" width="1024px" height="1024px" style="shape-rendering:geometricPrecision; text-rendering:geometricPrecision; image-rendering:optimizeQuality; fill-rule:evenodd; clip-rule:evenodd" xmlns:xlink="http://www.w3.org/1999/xlink">
<g><path style="opacity:0.969" fill="#174078" d="M 479.5,-0.5 C 500.833,-0.5 522.167,-0.5 543.5,-0.5C 704.363,13.4944 832.863,84.8278 929,213.5C 985.071,293.334 1016.57,382.001 1023.5,479.5C 1023.5,500.833 1023.5,522.167 1023.5,543.5C 1010.68,696.667 944.677,821.167 825.5,917C 741.875,980.46 647.542,1015.96 542.5,1023.5C 521.833,1023.5 501.167,1023.5 480.5,1023.5C 320.914,1010.48 193.08,940.475 97,813.5C 39.2453,732.745 6.74528,642.745 -0.5,543.5C -0.5,522.167 -0.5,500.833 -0.5,479.5C 13.4944,318.637 84.8278,190.137 213.5,94C 293.334,37.9289 382.001,6.42894 479.5,-0.5 Z"/></g>
<g><path style="opacity:1" fill="#fdfdfe" d="M 477.5,14.5 C 634.366,7.92801 767.199,60.5947 876,172.5C 983.72,293.036 1025.72,433.703 1002,594.5C 976.233,732.961 906.066,842.461 791.5,923C 661.214,1007.66 520.881,1029.66 370.5,989C 235.389,946.207 134.555,862.374 68,737.5C 8.33964,615.917 -1.9937,490.25 37,360.5C 88.1275,211.372 186.627,106.872 332.5,47C 379.413,29.4527 427.746,18.6194 477.5,14.5 Z"/></g>
<g><path style="opacity:1" fill="#e9486b" d="M 975.5,512.5 C 975.5,511.167 975.5,509.833 975.5,508.5C 972.833,508.5 970.167,508.5 967.5,508.5C 965.965,373.299 916.298,259.466 818.5,167C 700.593,63.7647 564.259,27.0981 409.5,57C 285.124,87.0596 188.291,155.56 119,262.5C 72.4007,337.808 49.234,419.808 49.5,508.5C 46.5,508.5 43.5,508.5 40.5,508.5C 42.6612,363.382 97.9946,243.216 206.5,148C 325.531,51.5204 460.531,18.5204 611.5,49C 748.852,83.0717 852.019,161.572 921,284.5C 959.164,355.883 977.331,431.883 975.5,512.5 Z"/></g>
<g><path style="opacity:1" fill="#fefafa" d="M 967.5,508.5 C 964.167,508.5 960.833,508.5 957.5,508.5C 956.61,379.935 910.61,270.768 819.5,181C 705.224,77.0372 571.557,38.3706 418.5,65C 306.51,89.738 216.01,147.571 147,238.5C 141.563,246.387 136.396,254.387 131.5,262.5C 129.072,261.788 126.739,260.788 124.5,259.5C 123.304,259.846 123.304,260.346 124.5,261C 126.193,261.847 127.86,262.68 129.5,263.5C 82.4729,338.244 59.1395,419.911 59.5,508.5C 56.1667,508.5 52.8333,508.5 49.5,508.5C 49.234,419.808 72.4007,337.808 119,262.5C 188.291,155.56 285.124,87.0596 409.5,57C 564.259,27.0981 700.593,63.7647 818.5,167C 916.298,259.466 965.965,373.299 967.5,508.5 Z"/></g>
<g><path style="opacity:1" fill="#e9486a" d="M 957.5,508.5 C 954.5,508.5 951.5,508.5 948.5,508.5C 946.721,365.456 890.721,248.956 780.5,159C 669.655,75.6414 545.988,47.9747 409.5,76C 294.755,104.488 204.755,167.655 139.5,265.5C 136.603,264.871 133.936,263.871 131.5,262.5C 136.396,254.387 141.563,246.387 147,238.5C 216.01,147.571 306.51,89.738 418.5,65C 571.557,38.3706 705.224,77.0372 819.5,181C 910.61,270.768 956.61,379.935 957.5,508.5 Z"/></g>
<g><path style="opacity:1" fill="#fef9f9" d="M 948.5,508.5 C 945.5,508.5 942.5,508.5 939.5,508.5C 937.977,375.317 887.644,264.817 788.5,177C 677.438,86.7937 551.438,56.127 410.5,85C 311.308,109.647 230.141,161.814 167,241.5C 160.613,250.381 154.446,259.381 148.5,268.5C 145.215,268.072 142.215,267.072 139.5,265.5C 204.755,167.655 294.755,104.488 409.5,76C 545.988,47.9747 669.655,75.6414 780.5,159C 890.721,248.956 946.721,365.456 948.5,508.5 Z"/></g>
<g><path style="opacity:1" fill="#e9486b" d="M 939.5,508.5 C 936.5,508.5 933.5,508.5 930.5,508.5C 929.421,380.536 881.754,273.703 787.5,188C 687.111,103.304 571.444,69.9706 440.5,88C 320.22,110.261 225.553,171.428 156.5,271.5C 153.458,271.267 150.792,270.267 148.5,268.5C 154.446,259.381 160.613,250.381 167,241.5C 230.141,161.814 311.308,109.647 410.5,85C 551.438,56.127 677.438,86.7937 788.5,177C 887.644,264.817 937.977,375.317 939.5,508.5 Z"/></g>
<g><path style="opacity:1" fill="#fef9f9" d="M 930.5,508.5 C 927.833,508.5 925.167,508.5 922.5,508.5C 921.645,384.652 875.979,280.819 785.5,197C 681.698,107.878 562.031,75.2117 426.5,99C 315.962,123.396 228.629,181.896 164.5,274.5C 161.557,274.02 158.89,273.02 156.5,271.5C 225.553,171.428 320.22,110.261 440.5,88C 571.444,69.9706 687.111,103.304 787.5,188C 881.754,273.703 929.421,380.536 930.5,508.5 Z"/></g>
<g><path style="opacity:1" fill="#e9476a" d="M 922.5,508.5 C 919.5,508.5 916.5,508.5 913.5,508.5C 911.55,370.43 855.883,259.93 746.5,177C 649.807,109.19 543.14,86.1904 426.5,108C 328.124,130.078 247.957,180.578 186,259.5C 181.315,265.548 177.149,271.881 173.5,278.5C 170.261,277.538 167.261,276.205 164.5,274.5C 228.629,181.896 315.962,123.396 426.5,99C 562.031,75.2117 681.698,107.878 785.5,197C 875.979,280.819 921.645,384.652 922.5,508.5 Z"/></g>
<g><path style="opacity:1" fill="#fef9f9" d="M 913.5,508.5 C 911.167,508.5 908.833,508.5 906.5,508.5C 903.97,372.266 848.636,263.432 740.5,182C 650.153,119.457 550.486,96.4574 441.5,113C 342.026,131.3 260.526,179.466 197,257.5C 191.281,265.045 185.781,272.712 180.5,280.5C 178.035,280.233 175.701,279.566 173.5,278.5C 177.149,271.881 181.315,265.548 186,259.5C 247.957,180.578 328.124,130.078 426.5,108C 543.14,86.1904 649.807,109.19 746.5,177C 855.883,259.93 911.55,370.43 913.5,508.5 Z"/></g>
<g><path style="opacity:1" fill="#e9486b" d="M 906.5,508.5 C 904.167,508.5 901.833,508.5 899.5,508.5C 895.806,375.937 841.473,269.771 736.5,190C 639.284,122.432 532.617,101.432 416.5,127C 321.39,151.692 245.39,203.858 188.5,283.5C 185.557,283.02 182.89,282.02 180.5,280.5C 185.781,272.712 191.281,265.045 197,257.5C 260.526,179.466 342.026,131.3 441.5,113C 550.486,96.4574 650.153,119.457 740.5,182C 848.636,263.432 903.97,372.266 906.5,508.5 Z"/></g>
<g><path style="opacity:1" fill="#fcfdfe" d="M 899.5,508.5 C 898.82,576.556 882.486,640.556 850.5,700.5C 840.63,694.736 830.963,688.736 821.5,682.5C 847.77,635.186 863.27,584.519 868,530.5C 868.833,518.153 868.666,505.82 867.5,493.5C 845.712,506.144 822.879,516.477 799,524.5C 800.005,569.816 793.172,613.816 778.5,656.5C 776.326,656.25 774.659,655.25 773.5,653.5C 787.599,612 793.933,569.333 792.5,525.5C 758.978,535.656 724.811,538.656 690,534.5C 687.833,534.833 685.667,535.167 683.5,535.5C 673.977,551.232 663.977,566.565 653.5,581.5C 651.118,580.649 649.118,579.316 647.5,577.5C 658.542,564.442 668.375,550.442 677,535.5C 677.483,534.552 677.649,533.552 677.5,532.5C 656.057,529.13 635.391,523.13 615.5,514.5C 616.833,512.5 618.5,510.833 620.5,509.5C 640.117,518.767 660.617,524.434 682,526.5C 710.252,476.156 724.752,422.156 725.5,364.5C 712.099,363.866 700.765,358.7 691.5,349C 690.5,348.333 689.5,348.333 688.5,349C 650.204,373.812 613.204,400.312 577.5,428.5C 575.013,427.677 572.679,426.677 570.5,425.5C 607.924,396.949 646.258,369.615 685.5,343.5C 678.551,335.439 673.551,326.272 670.5,316C 607.089,310.374 545.089,317.207 484.5,336.5C 486.747,358.92 493.08,380.253 503.5,400.5C 500.33,399.735 497.33,398.735 494.5,397.5C 490.154,385.976 485.987,373.976 482,361.5C 480.454,354.531 479.12,347.531 478,340.5C 477.612,339.572 476.945,338.905 476,338.5C 453.652,346.096 432.152,355.429 411.5,366.5C 408.603,365.871 405.936,364.871 403.5,363.5C 426.776,351.53 450.776,341.196 475.5,332.5C 475.471,318.556 475.637,304.556 476,290.5C 476.564,285.615 477.397,280.782 478.5,276C 475.829,270.496 474.829,264.662 475.5,258.5C 477.857,258.663 480.19,258.497 482.5,258C 483.653,255.384 484.653,252.718 485.5,250C 482.132,249.457 478.799,249.624 475.5,250.5C 475.334,241.827 475.5,233.16 476,224.5C 480.575,219.254 485.742,214.754 491.5,211C 467.955,207.635 444.288,206.635 420.5,208C 419.5,208.333 418.5,208.667 417.5,209C 421.089,211.631 425.089,212.797 429.5,212.5C 428.601,218.031 426.268,222.864 422.5,227C 416.35,227.16 410.35,226.493 404.5,225C 401.762,226.312 400.428,228.478 400.5,231.5C 421.501,228.334 431.001,237.334 429,258.5C 424.578,273.251 414.744,282.085 399.5,285C 385.564,287.395 372.564,285.061 360.5,278C 353.845,273.189 350.511,266.689 350.5,258.5C 358.86,258.91 366.86,257.41 374.5,254C 377.326,251.478 376.993,249.478 373.5,248C 365.46,247.099 357.794,248.265 350.5,251.5C 349.502,242.525 349.168,233.525 349.5,224.5C 326.392,232.47 304.892,243.47 285,257.5C 281.955,277.37 280.122,297.37 279.5,317.5C 277.597,317.204 275.93,316.537 274.5,315.5C 274.67,299.774 275.67,284.107 277.5,268.5C 277.167,266.833 276.833,265.167 276.5,263.5C 261.238,274.763 246.904,287.096 233.5,300.5C 230.982,299.736 228.649,298.736 226.5,297.5C 236.625,288.917 246.625,280.084 256.5,271C 263.975,265.692 271.308,260.192 278.5,254.5C 280.465,244.853 281.965,235.186 283,225.5C 258.473,245.854 236.973,268.854 218.5,294.5C 208.13,291.601 198.13,287.935 188.5,283.5C 245.39,203.858 321.39,151.692 416.5,127C 532.617,101.432 639.284,122.432 736.5,190C 841.473,269.771 895.806,375.937 899.5,508.5 Z"/></g>
<g><path style="opacity:1" fill="#27b0e6" d="M 488.5,144.5 C 511.61,143.88 534.61,145.046 557.5,148C 537.952,165.207 520.952,184.54 506.5,206C 485.117,203.371 463.617,201.871 442,201.5C 420.301,201.469 398.968,204.136 378,209.5C 373.502,206.777 368.669,205.944 363.5,207C 358.882,209.95 354.548,213.284 350.5,217C 327.889,225.472 306.555,236.305 286.5,249.5C 286.167,248.667 285.833,247.833 285.5,247C 287.449,238.243 288.949,229.409 290,220.5C 348.419,175.218 414.586,149.884 488.5,144.5 Z"/></g>
<g><path style="opacity:1" fill="#29b0e6" d="M 564.5,149.5 C 599.813,154.103 633.479,164.27 665.5,180C 679.235,195.951 690.068,213.784 698,233.5C 701.663,242.322 704.83,251.322 707.5,260.5C 692.381,259.808 680.881,265.808 673,278.5C 672.282,279.451 671.449,279.617 670.5,279C 671.491,263.578 671.824,248.078 671.5,232.5C 662.09,230.106 652.59,228.106 643,226.5C 634.625,227.542 627.625,231.208 622,237.5C 617.999,234.441 613.499,232.441 608.5,231.5C 609.128,229.742 610.128,228.242 611.5,227C 608.714,224.274 605.381,222.607 601.5,222C 603.614,220.482 605.947,220.149 608.5,221C 614.058,224.53 619.891,227.363 626,229.5C 630.532,228.649 634.365,226.482 637.5,223C 639.034,222.077 640.701,221.577 642.5,221.5C 649.238,223.801 656.071,225.801 663,227.5C 670.36,225.639 674.86,220.973 676.5,213.5C 673.729,213.579 671.063,213.079 668.5,212C 663.26,209.545 657.926,207.378 652.5,205.5C 647.422,207.544 642.755,210.378 638.5,214C 636.167,214.667 633.833,214.667 631.5,214C 627.5,211.667 623.5,209.333 619.5,207C 616.594,205.682 613.594,205.348 610.5,206C 604.247,210.043 598.08,214.21 592,218.5C 591.501,222.152 591.335,225.818 591.5,229.5C 595.41,229.263 599.077,230.096 602.5,232C 600.221,232.473 598.221,233.473 596.5,235C 595.167,235.667 593.833,235.667 592.5,235C 578.922,228.544 564.922,223.21 550.5,219C 540.373,209.622 528.373,204.956 514.5,205C 528.897,184.437 545.564,165.937 564.5,149.5 Z"/></g>
<g><path style="opacity:1" fill="#29b0e6" d="M 680.5,187.5 C 710.151,203.64 737.151,223.473 761.5,247C 754.072,256.517 746.406,265.851 738.5,275C 730.893,270.14 722.727,265.973 714,262.5C 706.585,235.682 695.418,210.682 680.5,187.5 Z"/></g>
<g><path style="opacity:1" fill="#27b0e5" d="M 403.5,363.5 C 362.096,348.365 320.763,333.032 279.5,317.5C 280.122,297.37 281.955,277.37 285,257.5C 304.892,243.47 326.392,232.47 349.5,224.5C 349.168,233.525 349.502,242.525 350.5,251.5C 357.794,248.265 365.46,247.099 373.5,248C 376.993,249.478 377.326,251.478 374.5,254C 366.86,257.41 358.86,258.91 350.5,258.5C 350.511,266.689 353.845,273.189 360.5,278C 372.564,285.061 385.564,287.395 399.5,285C 414.744,282.085 424.578,273.251 429,258.5C 431.001,237.334 421.501,228.334 400.5,231.5C 400.428,228.478 401.762,226.312 404.5,225C 410.35,226.493 416.35,227.16 422.5,227C 426.268,222.864 428.601,218.031 429.5,212.5C 425.089,212.797 421.089,211.631 417.5,209C 418.5,208.667 419.5,208.333 420.5,208C 444.288,206.635 467.955,207.635 491.5,211C 485.742,214.754 480.575,219.254 476,224.5C 475.5,233.16 475.334,241.827 475.5,250.5C 478.799,249.624 482.132,249.457 485.5,250C 484.653,252.718 483.653,255.384 482.5,258C 480.19,258.497 477.857,258.663 475.5,258.5C 474.829,264.662 475.829,270.496 478.5,276C 477.397,280.782 476.564,285.615 476,290.5C 475.637,304.556 475.471,318.556 475.5,332.5C 450.776,341.196 426.776,351.53 403.5,363.5 Z"/></g>
<g><path style="opacity:1" fill="#2fb1e6" d="M 396.5,210.5 C 398.199,210.34 399.866,210.506 401.5,211C 398.333,212.833 395.833,215.333 394,218.5C 393.5,229.161 393.333,239.828 393.5,250.5C 401.93,247.758 410.263,247.925 418.5,251C 422.369,255.732 421.702,260.065 416.5,264C 410.004,266.944 403.171,268.111 396,267.5C 389.127,268.138 382.627,266.971 376.5,264C 375.549,263.282 375.383,262.449 376,261.5C 387.454,252.737 388.288,243.237 378.5,233C 370.947,230.548 363.281,229.881 355.5,231C 356.833,228.333 358.833,226.333 361.5,225C 367.782,225.865 374.116,226.532 380.5,227C 381.931,226.535 383.097,225.701 384,224.5C 386.527,220.779 388.527,216.779 390,212.5C 392.277,211.883 394.444,211.216 396.5,210.5 Z"/></g>
<g><path style="opacity:1" fill="#2ab0e6" d="M 507.5,222.5 C 520.537,220.93 532.871,223.096 544.5,229C 545.861,230.584 546.528,232.418 546.5,234.5C 543.833,234.5 541.167,234.5 538.5,234.5C 538.74,230.422 536.74,228.256 532.5,228C 520.829,226.007 516.329,230.84 519,242.5C 520.668,246.165 523.501,248.332 527.5,249C 545.134,251.695 554.467,244.195 555.5,226.5C 567.869,231.177 580.202,235.844 592.5,240.5C 591.11,251.111 595.777,256.445 606.5,256.5C 610.256,256.246 613.923,255.579 617.5,254.5C 616.349,259.149 613.349,261.982 608.5,263C 603.143,263.957 597.976,263.457 593,261.5C 591.919,268.054 592.586,274.388 595,280.5C 599.083,284.094 603.916,285.76 609.5,285.5C 613.739,285.217 617.739,284.05 621.5,282C 622.717,280.352 623.55,278.519 624,276.5C 624.333,270.167 624.667,263.833 625,257.5C 629.751,260.459 634.584,263.293 639.5,266C 642.745,276.08 649.412,282.58 659.5,285.5C 661.689,285.406 663.689,284.739 665.5,283.5C 666.833,284.5 668.167,285.5 669.5,286.5C 668.533,294.11 668.2,301.777 668.5,309.5C 605.159,305.168 543.159,312.168 482.5,330.5C 481.334,318.18 481.167,305.847 482,293.5C 482.049,288.968 482.882,284.634 484.5,280.5C 502.425,289.782 515.925,285.448 525,267.5C 528.438,262.919 532.938,261.419 538.5,263C 540.037,264.11 540.703,265.61 540.5,267.5C 535.831,264.593 531.331,264.927 527,268.5C 523.372,279.248 527.205,284.915 538.5,285.5C 551.21,283.607 556.377,276.274 554,263.5C 548.741,253.625 540.575,250.125 529.5,253C 522.167,257.667 514.833,262.333 507.5,267C 504.258,267.986 501.592,267.152 499.5,264.5C 508.241,258.693 511.741,250.693 510,240.5C 508.098,235.6 504.598,232.433 499.5,231C 500.794,228.913 501.961,226.746 503,224.5C 504.622,223.901 506.122,223.234 507.5,222.5 Z"/></g>
<g><path style="opacity:1" fill="#5ebaea" d="M 493.5,225.5 C 495.688,226.536 495.688,228.036 493.5,230C 491.167,230.667 488.833,230.667 486.5,230C 488.898,228.476 491.231,226.976 493.5,225.5 Z"/></g>
<g><path style="opacity:1" fill="#2eb1e6" d="M 226.5,297.5 C 223.458,297.267 220.792,296.267 218.5,294.5C 236.973,268.854 258.473,245.854 283,225.5C 281.965,235.186 280.465,244.853 278.5,254.5C 271.308,260.192 263.975,265.692 256.5,271C 246.625,280.084 236.625,288.917 226.5,297.5 Z"/></g>
<g><path style="opacity:1" fill="#36b2e6" d="M 634.5,245.5 C 644.686,245.304 654.353,247.471 663.5,252C 656.456,256.7 648.789,259.367 640.5,260C 635.332,256.581 629.998,253.415 624.5,250.5C 627.36,247.737 630.693,246.07 634.5,245.5 Z"/></g>
<g><path style="opacity:1" fill="#35b2e6" d="M 492.5,248.5 C 495.187,248.336 497.854,248.503 500.5,249C 501.876,251.54 501.21,253.54 498.5,255C 495.688,256.549 492.688,257.382 489.5,257.5C 489.905,254.285 490.905,251.285 492.5,248.5 Z"/></g>
<g><path style="opacity:1" fill="#29b0e6" d="M 764.5,251.5 C 765.239,251.369 765.906,251.536 766.5,252C 792.097,278.597 813.43,308.264 830.5,341C 808.285,328.32 784.785,318.154 760,310.5C 756.479,299.12 750.645,289.12 742.5,280.5C 749.882,270.796 757.215,261.13 764.5,251.5 Z"/></g>
<g><path style="opacity:1" fill="#32b1e6" d="M 664.5,256.5 C 665.895,258.847 665.728,261.181 664,263.5C 662.03,261.037 662.196,258.703 664.5,256.5 Z"/></g>
<g><path style="opacity:1" fill="#ef7d06" d="M 131.5,262.5 C 133.936,263.871 136.603,264.871 139.5,265.5C 142.215,267.072 145.215,268.072 148.5,268.5C 150.792,270.267 153.458,271.267 156.5,271.5C 158.89,273.02 161.557,274.02 164.5,274.5C 167.261,276.205 170.261,277.538 173.5,278.5C 175.701,279.566 178.035,280.233 180.5,280.5C 182.89,282.02 185.557,283.02 188.5,283.5C 198.13,287.935 208.13,291.601 218.5,294.5C 220.792,296.267 223.458,297.267 226.5,297.5C 228.649,298.736 230.982,299.736 233.5,300.5C 246.862,306.068 260.528,311.068 274.5,315.5C 275.93,316.537 277.597,317.204 279.5,317.5C 320.763,333.032 362.096,348.365 403.5,363.5C 405.936,364.871 408.603,365.871 411.5,366.5C 439.003,377.005 466.67,387.338 494.5,397.5C 497.33,398.735 500.33,399.735 503.5,400.5C 525.438,409.625 547.771,417.958 570.5,425.5C 572.679,426.677 575.013,427.677 577.5,428.5C 606.559,439.298 635.559,450.298 664.5,461.5C 649.443,477.22 634.776,493.22 620.5,509.5C 618.5,510.833 616.833,512.5 615.5,514.5C 607.563,522.938 599.396,531.272 591,539.5C 590.018,540.759 589.685,542.092 590,543.5C 608.81,555.486 627.977,566.819 647.5,577.5C 649.118,579.316 651.118,580.649 653.5,581.5C 693.161,606 733.161,630 773.5,653.5C 774.659,655.25 776.326,656.25 778.5,656.5C 792.327,665.917 806.66,674.584 821.5,682.5C 830.963,688.736 840.63,694.736 850.5,700.5C 863.472,708.322 876.472,716.155 889.5,724C 874.804,719.164 860.138,713.997 845.5,708.5C 834.813,703.6 823.813,699.266 812.5,695.5C 798.48,689.266 784.147,683.6 769.5,678.5C 767.95,677.559 766.284,676.893 764.5,676.5C 716.727,657.281 668.727,638.615 620.5,620.5C 618.351,619.264 616.018,618.264 613.5,617.5C 553.584,593.972 493.584,570.639 433.5,547.5C 431.064,546.129 428.397,545.129 425.5,544.5C 417.526,541.113 409.526,537.613 401.5,534C 425.681,509.986 449.681,485.82 473.5,461.5C 436.998,439.412 399.998,418.079 362.5,397.5C 360.365,395.929 358.032,394.596 355.5,393.5C 330.698,378.929 305.698,364.596 280.5,350.5C 278.537,349.18 276.537,347.846 274.5,346.5C 256.329,335.913 237.995,325.58 219.5,315.5C 217.537,314.18 215.537,312.846 213.5,311.5C 211.95,310.559 210.284,309.893 208.5,309.5C 201.398,304.774 194.064,300.274 186.5,296C 184.975,294.991 183.308,294.491 181.5,294.5C 179.516,291.836 176.849,290.169 173.5,289.5C 171.882,287.684 169.882,286.351 167.5,285.5C 165.117,283.642 162.45,282.308 159.5,281.5C 157.664,279.412 155.331,278.079 152.5,277.5C 150.664,275.412 148.331,274.079 145.5,273.5C 143.206,271.347 140.54,269.68 137.5,268.5C 134.869,266.847 132.203,265.181 129.5,263.5C 127.86,262.68 126.193,261.847 124.5,261C 123.304,260.346 123.304,259.846 124.5,259.5C 126.739,260.788 129.072,261.788 131.5,262.5 Z"/></g>
<g><path style="opacity:1" fill="#31b0e5" d="M 274.5,315.5 C 260.528,311.068 246.862,306.068 233.5,300.5C 246.904,287.096 261.238,274.763 276.5,263.5C 276.833,265.167 277.167,266.833 277.5,268.5C 275.67,284.107 274.67,299.774 274.5,315.5 Z"/></g>
<g><path style="opacity:1" fill="#e9486b" d="M 129.5,263.5 C 132.203,265.181 134.869,266.847 137.5,268.5C 90.6232,341.482 67.6232,421.482 68.5,508.5C 65.5,508.5 62.5,508.5 59.5,508.5C 59.1395,419.911 82.4729,338.244 129.5,263.5 Z"/></g>
<g><path style="opacity:1" fill="#fbfdfe" d="M 440.5,265.5 C 453.437,265.926 456.771,271.759 450.5,283C 438.906,286.741 434.072,282.574 436,270.5C 437.707,268.963 439.207,267.296 440.5,265.5 Z"/></g>
<g><path style="opacity:1" fill="#fbfcfe" d="M 564.5,265.5 C 573.987,264.819 578.154,269.153 577,278.5C 574.367,283.732 570.201,285.565 564.5,284C 559.268,281.367 557.435,277.201 559,271.5C 560.36,268.977 562.193,266.977 564.5,265.5 Z"/></g>
<g><path style="opacity:1" fill="#26b0e6" d="M 694.5,267.5 C 718.208,266.939 736.041,276.939 748,297.5C 757.227,312.361 758.894,328.028 753,344.5C 747.524,354.078 739.191,359.078 728,359.5C 706.878,356.393 691.211,345.393 681,326.5C 675.537,315.786 673.203,304.452 674,292.5C 676.15,280.138 682.983,271.805 694.5,267.5 Z"/></g>
<g><path style="opacity:1" fill="#fef8f9" d="M 137.5,268.5 C 140.54,269.68 143.206,271.347 145.5,273.5C 99.3978,344.832 76.7311,423.166 77.5,508.5C 74.5,508.5 71.5,508.5 68.5,508.5C 67.6232,421.482 90.6232,341.482 137.5,268.5 Z"/></g>
<g><path style="opacity:1" fill="#e9466a" d="M 145.5,273.5 C 148.331,274.079 150.664,275.412 152.5,277.5C 107.976,347.908 85.6424,424.908 85.5,508.5C 82.8333,508.5 80.1667,508.5 77.5,508.5C 76.7311,423.166 99.3978,344.832 145.5,273.5 Z"/></g>
<g><path style="opacity:1" fill="#fef7f7" d="M 152.5,277.5 C 155.331,278.079 157.664,279.412 159.5,281.5C 115.936,350.734 94.2697,426.4 94.5,508.5C 91.5,508.5 88.5,508.5 85.5,508.5C 85.6424,424.908 107.976,347.908 152.5,277.5 Z"/></g>
<g><path style="opacity:1" fill="#e9476a" d="M 159.5,281.5 C 162.45,282.308 165.117,283.642 167.5,285.5C 123.955,353.33 102.622,427.663 103.5,508.5C 100.5,508.5 97.5,508.5 94.5,508.5C 94.2697,426.4 115.936,350.734 159.5,281.5 Z"/></g>
<g><path style="opacity:1" fill="#fef8f8" d="M 167.5,285.5 C 169.882,286.351 171.882,287.684 173.5,289.5C 136.574,348.45 115.74,412.783 111,482.5C 110.5,491.16 110.334,499.827 110.5,508.5C 108.167,508.5 105.833,508.5 103.5,508.5C 102.622,427.663 123.955,353.33 167.5,285.5 Z"/></g>
<g><path style="opacity:1" fill="#e9476a" d="M 173.5,289.5 C 176.849,290.169 179.516,291.836 181.5,294.5C 139.615,359.51 118.948,430.843 119.5,508.5C 116.5,508.5 113.5,508.5 110.5,508.5C 110.334,499.827 110.5,491.16 111,482.5C 115.74,412.783 136.574,348.45 173.5,289.5 Z"/></g>
<g><path style="opacity:1" fill="#fcfdfe" d="M 181.5,294.5 C 183.308,294.491 184.975,294.991 186.5,296C 194.064,300.274 201.398,304.774 208.5,309.5C 201.996,318.182 196.829,327.516 193,337.5C 199.69,328.652 206.524,319.985 213.5,311.5C 215.537,312.846 217.537,314.18 219.5,315.5C 205.393,331.032 192.226,347.365 180,364.5C 170.142,385.741 163.309,407.907 159.5,431C 167.679,485.533 183.512,537.699 207,587.5C 227.145,539.002 253.978,494.835 287.5,455C 278.942,419.368 274.609,383.202 274.5,346.5C 276.537,347.846 278.537,349.18 280.5,350.5C 280.366,366.025 281.199,381.692 283,397.5C 285.376,415.434 288.709,433.101 293,450.5C 312.181,429.477 333.014,410.477 355.5,393.5C 358.032,394.596 360.365,395.929 362.5,397.5C 337.504,413.975 315.004,433.642 295,456.5C 305.712,504.923 326.379,548.589 357,587.5C 360.048,591.592 363.548,595.258 367.5,598.5C 386.579,580.083 405.912,562.083 425.5,544.5C 428.397,545.129 431.064,546.129 433.5,547.5C 432.448,547.351 431.448,547.517 430.5,548C 410.656,566.345 390.989,584.845 371.5,603.5C 413.435,647.476 463.768,677.643 522.5,694C 555.497,671.811 585.83,646.311 613.5,617.5C 616.018,618.264 618.351,619.264 620.5,620.5C 604.988,635.51 588.988,650.01 572.5,664C 558.449,675.052 544.115,685.719 529.5,696C 530.328,696.915 531.328,697.581 532.5,698C 558.394,705.579 584.727,710.579 611.5,713C 623.495,702.921 637.162,699.921 652.5,704C 656.552,704.627 660.218,706.127 663.5,708.5C 662.167,711.5 660.833,714.5 659.5,717.5C 684.46,719.485 709.46,719.985 734.5,719C 737.553,718.821 740.553,718.321 743.5,717.5C 751.294,704.244 758.294,690.578 764.5,676.5C 766.284,676.893 767.95,677.559 769.5,678.5C 764.025,692.283 757.359,705.45 749.5,718C 766.572,717.738 783.572,716.405 800.5,714C 804.895,708.032 808.895,701.865 812.5,695.5C 823.813,699.266 834.813,703.6 845.5,708.5C 779.821,813.397 685.488,875.897 562.5,896C 429.522,910.571 316.689,870.071 224,774.5C 156.724,698.894 121.891,610.227 119.5,508.5C 118.948,430.843 139.615,359.51 181.5,294.5 Z"/></g>
<g><path style="opacity:1" fill="#47b4e6" d="M 208.5,309.5 C 210.284,309.893 211.95,310.559 213.5,311.5C 206.524,319.985 199.69,328.652 193,337.5C 196.829,327.516 201.996,318.182 208.5,309.5 Z"/></g>
<g><path style="opacity:1" fill="#26b0e5" d="M 570.5,425.5 C 547.771,417.958 525.438,409.625 503.5,400.5C 493.08,380.253 486.747,358.92 484.5,336.5C 545.089,317.207 607.089,310.374 670.5,316C 673.551,326.272 678.551,335.439 685.5,343.5C 646.258,369.615 607.924,396.949 570.5,425.5 Z"/></g>
<g><path style="opacity:1" fill="#25b0e6" d="M 219.5,315.5 C 237.995,325.58 256.329,335.913 274.5,346.5C 274.609,383.202 278.942,419.368 287.5,455C 253.978,494.835 227.145,539.002 207,587.5C 183.512,537.699 167.679,485.533 159.5,431C 163.309,407.907 170.142,385.741 180,364.5C 192.226,347.365 205.393,331.032 219.5,315.5 Z"/></g>
<g><path style="opacity:1" fill="#25b0e6" d="M 761.5,317.5 C 788.514,325.214 813.347,337.214 836,353.5C 855.946,395.616 866.613,439.95 868,486.5C 846.117,499.691 822.95,510.025 798.5,517.5C 795.936,457.605 782.936,400.105 759.5,345C 762.405,335.976 763.072,326.809 761.5,317.5 Z"/></g>
<g><path style="opacity:1" fill="#30b0e4" d="M 494.5,397.5 C 466.67,387.338 439.003,377.005 411.5,366.5C 432.152,355.429 453.652,346.096 476,338.5C 476.945,338.905 477.612,339.572 478,340.5C 479.12,347.531 480.454,354.531 482,361.5C 485.987,373.976 490.154,385.976 494.5,397.5 Z"/></g>
<g><path style="opacity:1" fill="#27b0e5" d="M 620.5,509.5 C 634.776,493.22 649.443,477.22 664.5,461.5C 635.559,450.298 606.559,439.298 577.5,428.5C 613.204,400.312 650.204,373.812 688.5,349C 689.5,348.333 690.5,348.333 691.5,349C 700.765,358.7 712.099,363.866 725.5,364.5C 724.752,422.156 710.252,476.156 682,526.5C 660.617,524.434 640.117,518.767 620.5,509.5 Z"/></g>
<g><path style="opacity:1" fill="#2ab0e5" d="M 280.5,350.5 C 305.698,364.596 330.698,378.929 355.5,393.5C 333.014,410.477 312.181,429.477 293,450.5C 288.709,433.101 285.376,415.434 283,397.5C 281.199,381.692 280.366,366.025 280.5,350.5 Z"/></g>
<g><path style="opacity:1" fill="#27b0e6" d="M 754.5,352.5 C 756.136,353.749 757.303,355.416 758,357.5C 779.75,409.605 791.25,463.938 792.5,520.5C 774.374,524.818 756.041,527.985 737.5,530C 720.757,531.046 704.09,530.379 687.5,528C 715.832,477.505 730.498,423.338 731.5,365.5C 740.842,363.999 748.509,359.666 754.5,352.5 Z"/></g>
<g><path style="opacity:1" fill="#27b0e5" d="M 362.5,397.5 C 399.998,418.079 436.998,439.412 473.5,461.5C 449.681,485.82 425.681,509.986 401.5,534C 409.526,537.613 417.526,541.113 425.5,544.5C 405.912,562.083 386.579,580.083 367.5,598.5C 363.548,595.258 360.048,591.592 357,587.5C 326.379,548.589 305.712,504.923 295,456.5C 315.004,433.642 337.504,413.975 362.5,397.5 Z"/></g>
<g><path style="opacity:1" fill="#2bb0e6" d="M 155.5,449.5 C 165.861,499.742 181.861,548.242 203.5,595C 196.011,613.134 189.511,631.634 184,650.5C 162.404,603.779 151.571,554.612 151.5,503C 151.627,485.052 152.961,467.218 155.5,449.5 Z"/></g>
<g><path style="opacity:1" fill="#25b0e6" d="M 288.5,463.5 C 297.517,492.351 309.017,520.351 323,547.5C 334.325,567.319 347.492,585.819 362.5,603C 332.565,632.099 303.565,661.933 275.5,692.5C 249.121,663.091 227.454,630.424 210.5,594.5C 229.658,546.477 255.658,502.81 288.5,463.5 Z"/></g>
<g><path style="opacity:1" fill="#27b0e6" d="M 821.5,682.5 C 806.66,674.584 792.327,665.917 778.5,656.5C 793.172,613.816 800.005,569.816 799,524.5C 822.879,516.477 845.712,506.144 867.5,493.5C 868.666,505.82 868.833,518.153 868,530.5C 863.27,584.519 847.77,635.186 821.5,682.5 Z"/></g>
<g><path style="opacity:1" fill="#163f77" d="M 40.5,508.5 C 43.5,508.5 46.5,508.5 49.5,508.5C 52.8333,508.5 56.1667,508.5 59.5,508.5C 62.5,508.5 65.5,508.5 68.5,508.5C 71.5,508.5 74.5,508.5 77.5,508.5C 80.1667,508.5 82.8333,508.5 85.5,508.5C 88.5,508.5 91.5,508.5 94.5,508.5C 97.5,508.5 100.5,508.5 103.5,508.5C 105.833,508.5 108.167,508.5 110.5,508.5C 113.5,508.5 116.5,508.5 119.5,508.5C 121.891,610.227 156.724,698.894 224,774.5C 316.689,870.071 429.522,910.571 562.5,896C 685.488,875.897 779.821,813.397 845.5,708.5C 860.138,713.997 874.804,719.164 889.5,724C 876.472,716.155 863.472,708.322 850.5,700.5C 882.486,640.556 898.82,576.556 899.5,508.5C 901.833,508.5 904.167,508.5 906.5,508.5C 908.833,508.5 911.167,508.5 913.5,508.5C 916.5,508.5 919.5,508.5 922.5,508.5C 925.167,508.5 927.833,508.5 930.5,508.5C 933.5,508.5 936.5,508.5 939.5,508.5C 942.5,508.5 945.5,508.5 948.5,508.5C 951.5,508.5 954.5,508.5 957.5,508.5C 960.833,508.5 964.167,508.5 967.5,508.5C 970.167,508.5 972.833,508.5 975.5,508.5C 975.5,509.833 975.5,511.167 975.5,512.5C 974.708,530.542 973.375,548.542 971.5,566.5C 960.5,567.167 949.5,567.833 938.5,568.5C 936.182,596.274 929.848,623.107 919.5,649C 919.645,649.772 919.978,650.439 920.5,651C 929.867,653.509 938.867,656.676 947.5,660.5C 934.683,696.137 917.683,729.47 896.5,760.5C 889.627,756.466 882.627,752.633 875.5,749C 874.365,748.251 873.365,748.417 872.5,749.5C 849.892,776.278 826.725,802.612 803,828.5C 802.48,830.289 802.813,831.956 804,833.5C 808.667,838.167 813.333,842.833 818,847.5C 818.749,848.635 818.583,849.635 817.5,850.5C 783.217,880.657 745.217,905.324 703.5,924.5C 700.985,916.104 698.319,907.771 695.5,899.5C 677.816,908.342 659.483,915.509 640.5,921C 618.659,927.587 596.659,933.587 574.5,939C 572.553,946.558 571.886,954.391 572.5,962.5C 527.441,969.406 482.441,969.072 437.5,961.5C 438.319,954.19 438.986,946.856 439.5,939.5C 402.774,930.067 366.441,919.234 330.5,907C 325.713,905.107 321.047,902.94 316.5,900.5C 314.907,908.277 312.907,915.944 310.5,923.5C 267.891,903.715 229.224,878.215 194.5,847C 200.167,842.667 205.833,838.333 211.5,834C 189.919,810.423 169.086,786.257 149,761.5C 146.323,757.47 143.656,753.47 141,749.5C 133.317,752.505 125.65,755.505 118,758.5C 98.592,730.01 82.7587,699.51 70.5,667C 70.6448,666.228 70.9781,665.561 71.5,665C 78.59,662.149 85.2566,658.649 91.5,654.5C 87.396,644.832 84.2293,634.832 82,624.5C 78.083,606.998 75.2496,589.331 73.5,571.5C 64.1846,570.613 54.8513,569.946 45.5,569.5C 42.5707,549.277 40.9041,528.944 40.5,508.5 Z"/></g>
<g><path style="opacity:1" fill="#2ab0e5" d="M 615.5,514.5 C 635.391,523.13 656.057,529.13 677.5,532.5C 677.649,533.552 677.483,534.552 677,535.5C 668.375,550.442 658.542,564.442 647.5,577.5C 627.977,566.819 608.81,555.486 590,543.5C 589.685,542.092 590.018,540.759 591,539.5C 599.396,531.272 607.563,522.938 615.5,514.5 Z"/></g>
<g><path style="opacity:1" fill="#27b0e5" d="M 773.5,653.5 C 733.161,630 693.161,606 653.5,581.5C 663.977,566.565 673.977,551.232 683.5,535.5C 685.667,535.167 687.833,534.833 690,534.5C 724.811,538.656 758.978,535.656 792.5,525.5C 793.933,569.333 787.599,612 773.5,653.5 Z"/></g>
<g><path style="opacity:1" fill="#25b0e5" d="M 433.5,547.5 C 493.584,570.639 553.584,593.972 613.5,617.5C 585.83,646.311 555.497,671.811 522.5,694C 463.768,677.643 413.435,647.476 371.5,603.5C 390.989,584.845 410.656,566.345 430.5,548C 431.448,547.517 432.448,547.351 433.5,547.5 Z"/></g>
<g><path style="opacity:1" fill="#28b0e6" d="M 206.5,602.5 C 224.475,636.286 245.808,667.786 270.5,697C 270.138,698.225 269.638,699.391 269,700.5C 258.49,712.208 247.99,723.874 237.5,735.5C 217.233,712.498 200.567,686.998 187.5,659C 193.338,639.985 199.672,621.152 206.5,602.5 Z"/></g>
<g><path style="opacity:1" fill="#27b0e6" d="M 366.5,607.5 C 408.183,649.945 457.516,680.445 514.5,699C 511.833,700.667 509.167,702.333 506.5,704C 492.171,704.5 477.837,704.667 463.5,704.5C 463.5,708.167 463.5,711.833 463.5,715.5C 471.174,715.334 478.841,715.5 486.5,716C 449.761,738.036 411.428,756.869 371.5,772.5C 365.436,770.902 363.102,766.902 364.5,760.5C 377.891,762.157 390.558,759.99 402.5,754C 411.064,744.82 413.897,733.986 411,721.5C 405.727,711.93 397.56,706.43 386.5,705C 374.824,703.345 363.157,703.178 351.5,704.5C 350.667,722.824 350.167,741.158 350,759.5C 324.251,741.596 300.751,720.929 279.5,697.5C 293.782,681.049 308.615,665.049 324,649.5C 338.062,635.271 352.228,621.271 366.5,607.5 Z"/></g>
<g><path style="opacity:1" fill="#27b0e5" d="M 620.5,620.5 C 668.727,638.615 716.727,657.281 764.5,676.5C 758.294,690.578 751.294,704.244 743.5,717.5C 740.553,718.321 737.553,718.821 734.5,719C 709.46,719.985 684.46,719.485 659.5,717.5C 660.833,714.5 662.167,711.5 663.5,708.5C 660.218,706.127 656.552,704.627 652.5,704C 637.162,699.921 623.495,702.921 611.5,713C 584.727,710.579 558.394,705.579 532.5,698C 531.328,697.581 530.328,696.915 529.5,696C 544.115,685.719 558.449,675.052 572.5,664C 588.988,650.01 604.988,635.51 620.5,620.5 Z"/></g>
<g><path style="opacity:1" fill="#2eb0e5" d="M 769.5,678.5 C 784.147,683.6 798.48,689.266 812.5,695.5C 808.895,701.865 804.895,708.032 800.5,714C 783.572,716.405 766.572,717.738 749.5,718C 757.359,705.45 764.025,692.283 769.5,678.5 Z"/></g>
<g><path style="opacity:1" fill="#3fb4e7" d="M 520.5,701.5 C 524.879,702.013 529.213,702.847 533.5,704C 528.167,704.667 522.833,704.667 517.5,704C 518.942,703.623 519.942,702.79 520.5,701.5 Z"/></g>
<g><path style="opacity:1" fill="#26b0e6" d="M 274.5,702.5 C 297.67,726.168 322.836,747.501 350,766.5C 350.499,771.489 350.666,776.489 350.5,781.5C 335.373,786.432 320.373,791.765 305.5,797.5C 281.709,781.383 260.376,762.383 241.5,740.5C 252.523,727.814 263.523,715.147 274.5,702.5 Z"/></g>
<g><path style="opacity:1" fill="#27b0e6" d="M 494.5,718.5 C 494.5,744.167 494.5,769.833 494.5,795.5C 499.167,795.5 503.833,795.5 508.5,795.5C 508.5,768.833 508.5,742.167 508.5,715.5C 519.167,715.5 529.833,715.5 540.5,715.5C 540.5,712.5 540.5,709.5 540.5,706.5C 562.025,711.472 583.692,715.805 605.5,719.5C 596.027,734.755 593.86,751.089 599,768.5C 607.569,791.542 624.069,800.708 648.5,796C 655.845,794.495 662.179,791.162 667.5,786C 665.12,782.742 662.62,779.576 660,776.5C 651.338,784.874 641.171,787.374 629.5,784C 616.193,776.733 609.86,765.4 610.5,750C 610.276,739.336 613.609,730.003 620.5,722C 648.459,723.498 676.459,724.665 704.5,725.5C 715.835,724.282 727.168,724.282 738.5,725.5C 709.441,769.06 673.441,805.893 630.5,836C 541.541,838.841 457.874,819.507 379.5,778C 378.167,777.333 378.167,776.667 379.5,776C 419.254,759.456 457.587,740.29 494.5,718.5 Z"/></g>
<g><path style="opacity:1" fill="#49b5e8" d="M 632.5,714.5 C 640.354,713.911 648.021,714.745 655.5,717C 649.825,717.47 644.159,717.303 638.5,716.5C 636.048,716.461 634.048,715.794 632.5,714.5 Z"/></g>
<g><path style="opacity:1" fill="#2cb1e6" d="M 364.5,715.5 C 374.29,714.454 383.623,715.954 392.5,720C 394.378,721.543 395.878,723.376 397,725.5C 400.139,738.407 395.305,746.24 382.5,749C 376.833,749.667 371.167,749.667 365.5,749C 364.513,737.915 364.179,726.748 364.5,715.5 Z"/></g>
<g><path style="opacity:1" fill="#d9ebfa" d="M 508.5,715.5 C 508.5,742.167 508.5,768.833 508.5,795.5C 503.833,795.5 499.167,795.5 494.5,795.5C 494.5,769.833 494.5,744.167 494.5,718.5C 495.498,743.661 495.831,768.995 495.5,794.5C 499.5,794.5 503.5,794.5 507.5,794.5C 507.169,767.995 507.502,741.661 508.5,715.5 Z"/></g>
<g><path style="opacity:1" fill="#2bb0e6" d="M 779.5,721.5 C 784.511,721.334 789.511,721.501 794.5,722C 753.945,774.249 702.945,812.249 641.5,836C 683.435,805.241 718.435,768.075 746.5,724.5C 757.641,723.682 768.641,722.682 779.5,721.5 Z"/></g>
<g><path style="opacity:1" fill="#fbfcfe" d="M 421.5,777.5 C 430.389,776.9 434.889,780.9 435,789.5C 432.318,795.257 427.818,797.424 421.5,796C 415.831,793.185 413.998,788.685 416,782.5C 417.73,780.598 419.563,778.931 421.5,777.5 Z"/></g>
<g><path style="opacity:1" fill="#fafcfe" d="M 550.5,777.5 C 560.008,776.84 564.175,781.173 563,790.5C 560.081,796.025 555.581,797.858 549.5,796C 544.581,793.259 542.748,789.092 544,783.5C 545.494,780.686 547.66,778.686 550.5,777.5 Z"/></g>
<g><path style="opacity:1" fill="#28b0e6" d="M 369.5,779.5 C 434.747,815.816 504.747,836.316 579.5,841C 593.155,841.906 606.821,842.573 620.5,843C 620.167,843.333 619.833,843.667 619.5,844C 523.593,874.16 430.926,866.16 341.5,820C 331.333,814.084 321.333,807.917 311.5,801.5C 324.234,797.033 336.901,792.366 349.5,787.5C 350.48,790.086 350.813,792.753 350.5,795.5C 355.167,795.5 359.833,795.5 364.5,795.5C 364.173,790.786 364.507,786.12 365.5,781.5C 367.026,781.006 368.359,780.339 369.5,779.5 Z"/></g>
</svg>
